<svg width="135" height="17" viewBox="0 0 135 17" fill="none" xmlns="http://www.w3.org/2000/svg">
<g clip-path="url(#clip0)">
<path d="M14.753 9.60339C14.4613 9.76685 14.3085 10.0529 14.3085 10.4616V15.7877C14.3085 15.8013 14.2946 15.8286 14.2668 15.8558C13.9195 16.1146 13.5445 16.3189 13.1416 16.4688C12.7387 16.6186 12.3081 16.7412 11.8774 16.8229C11.4468 16.9047 11.0023 16.9455 10.5716 16.9728C10.141 17 9.71033 17 9.29358 17C8.66845 17 8.02943 16.9728 7.37652 16.9319C6.25129 16.8502 5.2233 16.5641 4.32033 16.0874C3.40348 15.6106 2.63943 14.984 2.00041 14.2212C1.36139 13.4584 0.87518 12.5866 0.527886 11.6058C0.166701 10.6386 0 9.60339 0 8.52727C0 7.27406 0.222268 6.1707 0.694587 5.20355C1.15301 4.2364 1.77814 3.43272 2.56997 2.77887C3.3618 2.12503 4.29255 1.63464 5.34832 1.30772C6.41799 0.980794 7.54322 0.803711 8.7518 0.803711C9.39082 0.803711 10.0437 0.844576 10.6966 0.912685C11.3496 0.980794 11.9886 1.06253 12.6137 1.14426C12.9054 1.18512 13.1833 1.22599 13.4611 1.26685C13.7389 1.30772 14.0168 1.34858 14.3085 1.37583C14.3641 1.37583 14.3918 1.40307 14.3918 1.45756C14.3641 1.96156 14.3085 2.45195 14.239 2.94233C14.1696 3.43272 14.1001 3.90948 14.0307 4.41349C14.0168 4.50884 14.0029 4.60419 13.989 4.69954C13.9751 4.7949 13.9612 4.87663 13.9473 4.95836C13.9473 4.99922 13.9195 5.02647 13.8779 5.02647C13.8223 5.04009 13.7945 5.01285 13.7806 4.97198C13.6695 4.37262 13.4611 3.84137 13.1555 3.4191C12.8499 2.9832 12.4887 2.61541 12.0441 2.32935C11.6135 2.04329 11.1134 1.82535 10.5716 1.70275C10.0298 1.56653 9.46028 1.49842 8.87683 1.49842C7.89051 1.49842 6.97366 1.66188 6.11237 1.98881C5.26497 2.31573 4.51482 2.76525 3.88969 3.35099C3.26456 3.93672 2.76446 4.63144 2.38938 5.46237C2.0282 6.27967 1.8476 7.19233 1.8476 8.1731C1.8476 9.2356 2.04209 10.2436 2.44495 11.1971C2.84781 12.1507 3.38959 12.968 4.08417 13.6899C4.77876 14.3983 5.59837 14.9568 6.5569 15.379C7.51543 15.7877 8.54342 16.0056 9.64087 16.0056C10.1132 16.0056 10.5994 15.9511 11.0856 15.8422C11.5718 15.7332 11.9886 15.5153 12.3359 15.1611V10.3935C12.3359 10.0529 12.2247 9.83496 12.0164 9.71237C11.808 9.58977 11.5579 9.49442 11.2801 9.41269C11.169 9.38544 11.0439 9.34458 10.9328 9.30371C10.8217 9.26285 10.6966 9.20836 10.5855 9.14025C10.5438 9.11301 10.5299 9.08576 10.5438 9.0449C10.5577 9.00403 10.5855 8.99041 10.6272 8.99041C11.4885 8.99041 12.3359 9.00403 13.1694 9.01765C14.0029 9.03128 14.8503 9.05852 15.7116 9.09939L15.7393 9.26285C15.3782 9.33096 15.0448 9.43993 14.753 9.60339Z" fill="#060807"/>
<path d="M26.0748 15.2018C25.8942 15.1882 25.6997 15.1746 25.5053 15.1609C25.3941 15.1473 25.2691 15.1337 25.1441 15.1337C25.019 15.1201 24.894 15.1201 24.769 15.1201C24.4356 15.1201 24.1161 15.1337 23.7827 15.1609C23.4493 15.1882 23.1298 15.2154 22.7964 15.2427C22.7547 15.2427 22.7269 15.2154 22.713 15.1746C22.6991 15.1337 22.713 15.0928 22.7547 15.0656L23.5882 14.6705C23.3381 14.0167 23.0881 13.3629 22.8242 12.7226C22.5602 12.0824 22.3102 11.4286 22.0601 10.7475H18.7261C18.6566 10.9246 18.5455 11.197 18.4205 11.5648C18.2816 11.9189 18.1565 12.3004 18.0176 12.6818C17.8926 13.0632 17.7676 13.431 17.6703 13.7715C17.5731 14.1121 17.5175 14.3709 17.5175 14.5207C17.5175 14.725 17.6147 14.8749 17.7953 14.9294C17.9759 14.9975 18.1565 15.0383 18.3371 15.0656V15.229C18.0593 15.2018 17.7814 15.1746 17.5036 15.1609C17.2119 15.1337 16.9341 15.1337 16.6423 15.1337C16.3506 15.1337 16.0728 15.1473 15.781 15.1609C15.4893 15.1882 15.2115 15.2018 14.9198 15.229C14.8781 15.2427 14.8503 15.229 14.8503 15.1609C14.8364 15.1064 14.8642 15.0656 14.9059 15.052C15.6977 14.9566 16.2395 14.548 16.559 13.826V13.8532C16.9757 12.8316 17.3786 11.7963 17.7676 10.7747C18.1565 9.75308 18.5316 8.71782 18.9067 7.68257C19.1706 6.97423 19.4207 6.27952 19.6568 5.58481C19.9069 4.8901 20.1569 4.19539 20.4348 3.48705C20.4487 3.44619 20.4764 3.41895 20.5181 3.41895C20.5598 3.41895 20.5876 3.44619 20.6015 3.48705C20.6709 3.67776 20.7543 3.88209 20.8237 4.07279C20.9071 4.2635 20.9765 4.4542 21.046 4.65853C21.6295 6.23866 22.2407 7.81879 22.8797 9.39891C23.5187 10.9927 24.2411 12.5455 25.0607 14.0576C25.2274 14.3845 25.4497 14.6161 25.7136 14.7523C25.9776 14.8885 26.2832 14.9702 26.6305 15.0111V15.1746C26.436 15.2154 26.2415 15.2154 26.0748 15.2018ZM20.407 5.68016C20.1569 6.42936 19.9347 7.15132 19.7124 7.85965C19.4901 8.56798 19.2401 9.30356 18.9761 10.0664H21.7545L20.407 5.68016Z" fill="#060807"/>
<path d="M42.1474 15.2292C41.5778 15.2292 40.9944 15.2292 40.4109 15.2292C39.8414 15.2292 39.2718 15.2156 38.7161 15.1883C38.6328 15.1883 38.605 15.1475 38.6328 15.0794C38.6467 15.0521 38.6606 15.0249 38.6606 14.9976C38.6745 14.9704 38.6745 14.9431 38.6883 14.9159C38.73 14.7933 38.7717 14.6571 38.8134 14.5345C38.855 14.4119 38.8828 14.2893 38.8828 14.1803C38.8828 13.3766 38.8412 12.5866 38.7578 11.8101C38.6745 11.0337 38.5911 10.2436 38.4939 9.46717C38.4383 8.99041 38.3827 8.56813 38.3272 8.18672C38.2716 7.81893 38.2438 7.38304 38.2021 6.89265C37.6604 7.91429 37.1325 8.94954 36.6324 9.97118C36.1323 10.9928 35.6322 12.0417 35.1321 13.0906C34.9654 13.4447 34.7848 13.7853 34.632 14.1394C34.4653 14.48 34.2986 14.8342 34.1319 15.1883C34.118 15.2156 34.0902 15.2292 34.0624 15.2292C34.0346 15.2292 34.0068 15.2156 33.9791 15.1883C33.3261 14.2893 32.7566 13.3766 32.2704 12.4367C31.7842 11.4968 31.3396 10.5705 30.909 9.61701C30.6728 9.12663 30.4783 8.67711 30.2977 8.28208C30.1172 7.88704 29.9088 7.43753 29.6587 6.96076C29.6171 7.31493 29.5754 7.65547 29.5337 7.9824C29.492 8.30932 29.4504 8.63624 29.4087 8.96317C29.2975 9.83496 29.2003 10.6931 29.1031 11.5513C29.0197 12.4095 28.978 13.2813 28.978 14.1667C28.978 14.4255 29.0475 14.589 29.1725 14.6843C29.2975 14.7797 29.4642 14.8614 29.6448 14.9295C29.7004 14.9568 29.7838 14.984 29.881 15.0249C29.9782 15.0657 30.0477 15.0794 30.0755 15.093C30.1172 15.1202 30.131 15.1611 30.1172 15.2019C30.1033 15.2428 30.0755 15.2701 30.0338 15.2701C29.8393 15.2701 29.6309 15.2701 29.4365 15.2564C29.242 15.2428 29.0475 15.2428 28.8391 15.2292C28.6446 15.2156 28.4363 15.2019 28.2418 15.2019C28.0473 15.2019 27.8389 15.1883 27.6444 15.1883C27.5055 15.1883 27.3527 15.1883 27.2138 15.1883C27.0888 15.1883 26.9359 15.2019 26.7831 15.2292C26.7415 15.2428 26.7137 15.2156 26.6998 15.1611C26.6859 15.1066 26.6998 15.0657 26.7415 15.0521C26.8526 15.0249 26.9359 15.0112 27.0054 15.0112C27.1582 14.984 27.2971 14.9568 27.4083 14.9159C27.5194 14.875 27.6305 14.7797 27.7278 14.6298C27.7556 14.589 27.7972 14.4119 27.8528 14.085C27.9084 13.758 27.9639 13.3494 28.0195 12.859C28.089 12.355 28.1584 11.7965 28.2279 11.1563C28.3112 10.5297 28.3807 9.87583 28.4501 9.22198C28.5196 8.56813 28.5891 7.91429 28.6585 7.27406C28.728 6.63384 28.7974 6.0481 28.853 5.51685C28.9086 5.05371 28.9502 4.64506 28.978 4.29089C29.0058 3.93672 29.0336 3.67791 29.0614 3.52807C29.0614 3.4872 29.0753 3.45996 29.117 3.45996C29.1586 3.45996 29.1864 3.45996 29.2142 3.4872C29.3809 3.66429 29.6309 4.03208 29.9505 4.57695C30.27 5.12182 30.6034 5.74842 30.9645 6.45676C31.3257 7.17871 31.7147 7.92791 32.1037 8.7316C32.4926 9.53528 32.8538 10.2709 33.1872 10.9656C33.4373 11.456 33.6318 11.8782 33.7846 12.2324C33.9374 12.5866 34.0902 12.8726 34.2152 13.1178C34.4375 12.6683 34.6736 12.1779 34.9098 11.6467C35.146 11.1154 35.3821 10.5978 35.6044 10.0802C36.1045 8.93592 36.6324 7.79169 37.188 6.62022C37.7437 5.44874 38.3411 4.41349 38.9662 3.50083C38.994 3.47358 39.0217 3.45996 39.0495 3.47358C39.0773 3.4872 39.0912 3.50083 39.0912 3.54169C39.119 3.70515 39.1468 3.95035 39.1607 4.25003C39.1884 4.5497 39.2162 4.90387 39.2579 5.2989C39.2996 5.81653 39.3551 6.38865 39.4246 7.00163C39.4941 7.61461 39.5635 8.25483 39.633 8.89506C39.7024 9.53528 39.7719 10.1755 39.8414 10.7749C39.9108 11.3878 39.9942 11.9463 40.0636 12.4503C40.147 12.9544 40.2164 13.3766 40.2859 13.7308C40.3554 14.0713 40.4248 14.2893 40.4943 14.371C40.6471 14.6026 40.7999 14.7388 40.9388 14.8069C41.0777 14.875 41.2583 14.9159 41.4528 14.9431C41.55 14.9704 41.6612 14.984 41.7584 14.9976C41.8696 15.0112 41.9807 15.0385 42.0918 15.093L42.1474 15.2292Z" fill="#060807"/>
<path d="M49.0377 14.1527C48.9961 14.4524 48.9544 14.7657 48.9127 15.0926C48.9127 15.1335 48.8849 15.1608 48.8294 15.1608L48.8016 15.188C48.6904 15.2289 48.5932 15.2561 48.5237 15.2561C48.1903 15.2561 47.8569 15.2561 47.5235 15.2425C47.1901 15.2289 46.8567 15.2289 46.5233 15.2289C46.2316 15.2289 45.9538 15.2289 45.6898 15.2152C45.412 15.2016 45.1341 15.2016 44.8563 15.2016C44.4673 15.2016 44.0784 15.2016 43.6894 15.2152C43.3004 15.2289 42.9115 15.2289 42.5225 15.2425V15.079C42.7309 15.079 42.9115 15.0382 43.0504 14.9428C43.1893 14.8475 43.2865 14.7385 43.356 14.5886C43.4255 14.4524 43.481 14.289 43.4949 14.1119C43.5227 13.9348 43.5227 13.7577 43.5227 13.5806V4.80819C43.5227 4.52214 43.4532 4.34505 43.3143 4.26332C43.1754 4.18159 43.0365 4.11348 42.8698 4.05899C42.7864 4.03175 42.6892 4.00451 42.5781 3.96364C42.4669 3.92278 42.3558 3.88191 42.2447 3.80018C42.2169 3.77294 42.203 3.74569 42.2169 3.70483C42.2169 3.66396 42.2447 3.65034 42.2863 3.65034H48.4126C48.4682 3.6231 48.5376 3.59585 48.5932 3.58223C48.6488 3.56861 48.7182 3.54137 48.7738 3.51412C48.8433 3.48688 48.8849 3.51412 48.8849 3.59585C48.8433 3.96364 48.7877 4.30419 48.7182 4.61749C48.6488 4.93079 48.5793 5.25771 48.5099 5.57101C48.496 5.61188 48.4682 5.6255 48.4126 5.6255C48.357 5.61188 48.3432 5.59826 48.3432 5.55739C48.3154 5.06701 48.1487 4.74008 47.8292 4.59024C47.5096 4.4404 47.1207 4.35867 46.6622 4.35867H44.9675V8.67678H47.4541C47.5235 8.67678 47.6208 8.64954 47.7319 8.60867C47.843 8.56781 47.9542 8.52694 48.0792 8.48608C48.232 8.40435 48.3987 8.33624 48.5515 8.29537C48.621 8.26813 48.6627 8.29537 48.6627 8.3771C48.6488 8.54057 48.6349 8.73127 48.6071 8.92198C48.5793 9.11268 48.5654 9.30339 48.5376 9.46685C48.5099 9.63031 48.4821 9.80739 48.4682 9.9981C48.4543 10.1752 48.4265 10.3523 48.3987 10.5293C48.3987 10.5702 48.3848 10.5975 48.3432 10.6111C48.3015 10.6247 48.2737 10.6247 48.2459 10.5838C48.1764 10.5157 48.1209 10.4476 48.107 10.3795C48.0792 10.3114 48.0653 10.2297 48.0375 10.1479C48.0097 10.0662 47.982 9.98448 47.9542 9.88912C47.9264 9.80739 47.8708 9.72566 47.8014 9.65755C47.7319 9.58944 47.593 9.53496 47.3985 9.49409C47.204 9.45323 46.9957 9.42598 46.7734 9.41236C46.5511 9.38512 46.3288 9.38512 46.1205 9.38512C45.9121 9.38512 45.7454 9.38512 45.6204 9.38512H44.9813V13.7305C45.1897 14.0438 45.4953 14.2753 45.8982 14.4388C46.2872 14.6023 46.6761 14.684 47.0512 14.684C47.5513 14.684 47.982 14.5478 48.3293 14.289C48.6766 14.0301 48.9127 13.6624 49.0238 13.1856L49.1906 13.2265C49.135 13.5398 49.0794 13.8531 49.0377 14.1527Z" fill="#060807"/>
<path d="M62.138 7.83232C62.1241 7.85956 62.1102 7.87319 62.0824 7.85956C62.0546 7.85956 62.0407 7.84594 62.0407 7.8187C62.0407 7.54626 61.9713 7.36918 61.8184 7.2602C61.6656 7.15123 61.4712 7.09674 61.2072 7.09674C61.0961 7.09674 60.9849 7.09674 60.8738 7.11036C60.7766 7.12399 60.6654 7.13761 60.5404 7.15123C60.4571 7.16485 60.3737 7.17847 60.2626 7.19209C60.1653 7.20572 60.0681 7.20572 59.9847 7.20572V9.57591H61.6517C61.7073 9.57591 61.7768 9.54867 61.8462 9.5078C61.9157 9.45332 61.9713 9.41245 62.0129 9.35796C62.0268 9.34434 62.0546 9.34434 62.0685 9.34434C62.0824 9.35796 62.0963 9.37158 62.0963 9.39883C62.0824 9.6304 62.0546 9.84835 62.0268 10.0527C61.999 10.2706 61.9574 10.475 61.9157 10.6929C61.9018 10.7201 61.8879 10.7338 61.8601 10.7201C61.8323 10.7201 61.8184 10.7065 61.8184 10.6793C61.8323 10.4068 61.7629 10.2298 61.6101 10.1344C61.4712 10.0391 61.2628 9.98457 60.9988 9.98457H60.0125V12.3956C60.0125 12.491 60.0264 12.5863 60.0681 12.6953C60.1098 12.8043 60.1653 12.886 60.2348 12.9677C60.3042 13.0495 60.4015 13.1176 60.4987 13.1584C60.596 13.2129 60.7071 13.2266 60.8182 13.2266V13.3219H60.7349C60.6376 13.3219 60.5543 13.3219 60.4709 13.3083C60.3876 13.2947 60.3042 13.2947 60.207 13.281C60.1098 13.2674 60.0264 13.2674 59.9431 13.2674C59.8597 13.2674 59.7764 13.2674 59.693 13.2674C59.6097 13.2674 59.5263 13.2674 59.443 13.281C59.3596 13.2947 59.2763 13.2947 59.1929 13.3083C59.0957 13.3219 58.9984 13.3219 58.9012 13.3219C58.8039 13.3219 58.7206 13.3219 58.6233 13.3219H58.5539C58.5261 13.3219 58.5122 13.3083 58.5122 13.281C58.5122 13.2538 58.5122 13.2402 58.54 13.2266C58.6928 13.1993 58.8039 13.1721 58.8873 13.1312C58.9706 13.0903 59.0262 13.0495 59.0679 12.9814C59.1096 12.9269 59.1234 12.8451 59.1234 12.7498C59.1234 12.6544 59.1234 12.5318 59.1234 12.3956V7.36918C59.1234 7.17847 59.0818 7.0695 59.0123 7.02863C58.9429 6.98777 58.8456 6.9469 58.7484 6.91966C58.7067 6.90604 58.6511 6.87879 58.5956 6.86517C58.54 6.85155 58.4705 6.81068 58.4011 6.76982C58.3733 6.7562 58.3733 6.72895 58.3733 6.71533C58.3872 6.70171 58.4011 6.68809 58.4289 6.68809C58.9429 6.71533 59.4707 6.72895 59.9986 6.72895H60.8738C60.9155 6.72895 60.9572 6.72895 60.9988 6.72895C61.0405 6.72895 61.0961 6.72895 61.1378 6.72895C61.3322 6.74258 61.5267 6.74258 61.7212 6.72895C61.9296 6.71533 62.0963 6.67447 62.2491 6.59274C62.263 6.57911 62.2908 6.57911 62.3047 6.59274C62.3186 6.60636 62.3324 6.6336 62.3186 6.64722L62.138 7.83232Z" fill="#060807"/>
<path d="M129.402 1.87955C129.388 2.36993 129.318 2.81945 129.193 3.21448C129.18 3.25535 129.152 3.28259 129.096 3.28259C129.054 3.28259 129.027 3.25535 128.999 3.21448C128.929 2.8467 128.804 2.54702 128.652 2.31545C128.499 2.08387 128.29 1.90679 128.054 1.77057C127.818 1.63436 127.54 1.539 127.235 1.49814C126.929 1.44365 126.623 1.41641 126.29 1.41641H69.0005V14.3571C69.0005 14.9428 69.195 15.4469 69.5701 15.8691C69.959 16.2778 70.4313 16.5366 71.0009 16.6183C71.0426 16.632 71.0704 16.6728 71.0565 16.7137C71.0426 16.7682 71.0287 16.7954 70.9731 16.7954C70.4452 16.7545 69.9174 16.7137 69.3756 16.6864C68.8338 16.6592 68.3059 16.6456 67.7641 16.6456C67.3752 16.6456 66.9862 16.6592 66.5972 16.6728C66.2083 16.7001 65.8193 16.7273 65.4303 16.7545C65.3886 16.7545 65.3609 16.7273 65.347 16.6728C65.3331 16.6183 65.3609 16.5911 65.4025 16.5775C65.7637 16.5094 66.0416 16.4276 66.2499 16.3323C66.4583 16.2369 66.5972 16.1279 66.7084 15.9781C66.8056 15.8283 66.8612 15.6376 66.889 15.4196C66.9167 15.188 66.9167 14.902 66.9167 14.5478V1.45727H63.1937C62.7075 1.45727 62.2908 1.62073 61.9157 1.96128C61.5406 2.2882 61.2767 2.66961 61.0961 3.07827C61.0683 3.11913 61.0266 3.14637 60.9989 3.13275C60.9572 3.11913 60.9433 3.10551 60.9433 3.05102C60.9155 2.90118 60.9016 2.76496 60.9016 2.65599C60.9016 2.35631 60.9433 2.07025 61.0127 1.79782C61.0822 1.51176 61.1656 1.2257 61.2628 0.939644C61.3045 0.789804 61.3461 0.653586 61.4017 0.503746C61.4434 0.367529 61.4851 0.231311 61.5128 0.0950926C61.5406 0.0133619 61.5823 -0.0138817 61.6518 0.0542272C61.9713 0.244932 62.2769 0.367529 62.5825 0.422016C62.8881 0.476503 63.2354 0.503746 63.6244 0.503746H128.013C128.138 0.503746 128.263 0.490125 128.402 0.449259C128.54 0.408394 128.679 0.38115 128.791 0.353907C128.86 0.340285 128.957 0.326663 129.054 0.313041C129.152 0.29942 129.249 0.285798 129.36 0.272176C129.402 0.272176 129.43 0.29942 129.43 0.367529V0.544612C129.43 0.926022 129.43 1.38916 129.402 1.87955Z" fill="#060807"/>
<path d="M82.8502 15.2833C82.0862 15.2425 81.336 15.2152 80.5997 15.2152C80.3219 15.2152 80.058 15.2152 79.794 15.2288C79.5301 15.2425 79.2522 15.2425 78.9605 15.2561C78.9188 15.2561 78.8911 15.2288 78.8911 15.188C78.8772 15.1335 78.9049 15.1062 78.9466 15.0926C79.3912 14.97 79.6829 14.7929 79.8079 14.5886C79.9329 14.3843 80.0024 14.0437 80.0024 13.5942V9.22162H73.4038V13.6487C73.4038 14.5341 73.8761 15.0245 74.8069 15.1062C74.8486 15.1062 74.8763 15.1335 74.8763 15.188C74.8763 15.2425 74.8486 15.2697 74.8069 15.2697C74.5846 15.2697 74.3623 15.2697 74.1401 15.2697C73.9456 15.2697 73.7233 15.2833 73.5011 15.2969C73.3482 15.2969 73.1538 15.2969 72.9593 15.3106C72.7509 15.3242 72.5703 15.3242 72.4175 15.3242C72.2508 15.3242 72.0702 15.3242 71.8757 15.3242C71.6951 15.3242 71.5006 15.3106 71.3201 15.2969C71.2645 15.2969 71.195 15.2969 71.1117 15.2833C71.0283 15.2697 70.9589 15.2697 70.9033 15.2697C70.8616 15.2697 70.8338 15.2425 70.8338 15.2016C70.8199 15.1471 70.8477 15.1199 70.8894 15.1062C71.1117 15.0654 71.3062 15.0245 71.4451 14.97C71.584 14.9155 71.6951 14.8474 71.7646 14.7657C71.834 14.6703 71.8896 14.5614 71.9035 14.4115C71.9313 14.2753 71.9313 14.0846 71.9313 13.8666V4.87626C71.9313 4.56296 71.8063 4.33139 71.5562 4.18155C71.3062 4.03171 71.0422 3.93636 70.7505 3.92274V3.75928C71.3478 3.80014 71.9452 3.82739 72.5286 3.82739C72.7787 3.82739 73.0148 3.82739 73.2649 3.81376C73.515 3.81376 73.7511 3.80014 74.0012 3.80014H74.4596C74.5013 3.80014 74.529 3.82739 74.529 3.88187C74.529 3.93636 74.5013 3.9636 74.4596 3.9636C74.1956 3.9636 73.9734 4.04533 73.765 4.19517C73.5566 4.34501 73.4594 4.56296 73.4594 4.84902V8.51328H80.0302V4.94437C80.0302 4.60383 79.9468 4.3995 79.7662 4.30415C79.5856 4.2088 79.3634 4.12707 79.1133 4.05896C79.0578 4.04533 79.0022 4.03171 78.9466 4.01809C78.8911 4.00447 78.8494 3.99085 78.7799 3.97723C78.7382 3.9636 78.7244 3.93636 78.7244 3.88187C78.7382 3.82739 78.7521 3.81376 78.7938 3.81376C79.4745 3.85463 80.1413 3.88187 80.7942 3.88187C81.0859 3.88187 81.3777 3.88187 81.6694 3.86825C81.9611 3.85463 82.2529 3.85463 82.5446 3.84101C82.5863 3.84101 82.614 3.86825 82.614 3.90912C82.6279 3.9636 82.6002 3.99085 82.5585 4.00447C82.239 4.05896 81.9889 4.14069 81.8083 4.24966C81.6277 4.35864 81.5305 4.59021 81.5305 4.93075V13.567C81.5305 14.0437 81.6416 14.3979 81.85 14.6431C82.0584 14.8883 82.4196 15.0381 82.9058 15.1335L82.8502 15.2833Z" fill="#060807"/>
<path d="M94.3667 15.447C94.1028 15.5151 93.8388 15.5423 93.5888 15.5423C93.1581 15.5423 92.7692 15.4606 92.4219 15.3107C92.0746 15.1609 91.769 14.9566 91.4911 14.725C91.2133 14.4798 90.9632 14.2074 90.7271 13.9077C90.4909 13.5944 90.2687 13.2811 90.0464 12.9542C89.8519 12.6545 89.6296 12.3684 89.4074 12.0824C89.1851 11.7963 88.935 11.5375 88.6711 11.3059C88.4072 11.0744 88.1154 10.8837 87.8098 10.7474C87.5042 10.6112 87.1569 10.5431 86.7679 10.5431C86.6568 10.5431 86.5318 10.5431 86.4206 10.5431C86.3234 10.5431 86.2123 10.5567 86.1011 10.584V13.5808C86.1011 13.9894 86.2262 14.33 86.4762 14.6297C86.7263 14.9157 87.0597 15.0792 87.4764 15.12V15.2835C87.143 15.2563 86.8235 15.229 86.504 15.2154C86.1845 15.1881 85.8511 15.1882 85.5316 15.1882C85.1982 15.1882 84.8786 15.2018 84.573 15.229C84.2674 15.2563 83.9479 15.2971 83.6145 15.338C83.5728 15.3516 83.545 15.338 83.5173 15.2835C83.4895 15.229 83.5034 15.2018 83.545 15.1609C83.8507 15.0247 84.1007 14.8067 84.2952 14.5343C84.4897 14.2482 84.6008 13.9486 84.6008 13.6216V5.18975C84.6008 4.86283 84.4758 4.57677 84.2396 4.33158C84.0035 4.08639 83.7256 3.92293 83.3922 3.8412C83.3506 3.82757 83.3367 3.80033 83.3367 3.74584C83.3506 3.69136 83.3645 3.67773 83.4061 3.67773H87.6431C88.0876 3.67773 88.5183 3.73222 88.9489 3.8412C89.3796 3.95017 89.7547 4.11363 90.0881 4.33158C90.4215 4.56315 90.6854 4.84921 90.8799 5.217C91.0744 5.58479 91.1855 6.02068 91.1855 6.52469C91.1855 7.20578 90.991 7.83238 90.6159 8.44536C90.2409 9.04472 89.8102 9.57597 89.3379 9.99825C89.4907 10.1617 89.6713 10.3797 89.8519 10.6385C90.0325 10.8973 90.2409 11.1697 90.4492 11.4558C90.7687 11.8781 91.1022 12.314 91.4494 12.7498C91.7967 13.1857 92.1718 13.5944 92.5608 13.9486C92.9498 14.3027 93.3526 14.5888 93.7694 14.7931C94.1861 14.9974 94.6029 15.0656 95.0335 15.0111L95.103 15.1745C94.8946 15.2971 94.6307 15.3789 94.3667 15.447ZM89.5324 6.19777C89.4213 5.82998 89.2684 5.50305 89.0462 5.20338C88.8378 4.9037 88.56 4.67213 88.2543 4.48142C87.9348 4.29072 87.5737 4.19536 87.1569 4.19536C86.9902 4.19536 86.8096 4.20898 86.6429 4.22261C86.4762 4.24985 86.3095 4.29072 86.1428 4.35882V9.60321C86.3928 9.64408 86.629 9.67132 86.8513 9.68495C87.0735 9.69857 87.3236 9.71219 87.5598 9.71219C88.3655 9.71219 88.9211 9.49424 89.2268 9.07196C89.5324 8.64969 89.6852 8.05033 89.6852 7.28751C89.6991 6.93334 89.6435 6.56555 89.5324 6.19777Z" fill="#060807"/>
<path d="M105.286 12.0962C104.952 12.791 104.508 13.3903 103.938 13.8943C103.383 14.3983 102.73 14.7934 101.993 15.0794C101.257 15.3655 100.479 15.5017 99.6596 15.5017C98.9928 15.5017 98.2843 15.3382 97.562 15.0113C96.8396 14.6844 96.1728 14.2621 95.5754 13.7445C94.9781 13.2268 94.478 12.6411 94.0751 11.9736C93.6862 11.3198 93.4778 10.6523 93.4778 9.97124C93.4778 8.94961 93.575 8.06419 93.7695 7.32861C93.964 6.59304 94.2696 5.96643 94.7003 5.44881C95.1309 4.93118 95.7005 4.5089 96.3951 4.18198C97.1035 3.85506 97.9509 3.58262 98.9789 3.36467L99.2568 3.33743C100.174 3.26932 101.021 3.39191 101.813 3.73246C102.605 4.05938 103.285 4.52252 103.883 5.12188C104.466 5.72124 104.939 6.42957 105.272 7.23326C105.605 8.05057 105.772 8.90874 105.772 9.80778C105.786 10.6387 105.619 11.4015 105.286 12.0962ZM99.4513 4.05938C99.2707 4.05938 99.0901 4.073 98.9095 4.10025V14.7389C99.0762 14.7797 99.2568 14.807 99.4513 14.8206V4.05938ZM100.729 14.7525C101.118 14.6844 101.466 14.5754 101.785 14.4119C102.341 14.1395 102.813 13.7717 103.188 13.3222C103.563 12.8727 103.855 12.3414 104.049 11.7285C104.244 11.1291 104.341 10.4889 104.341 9.80778C104.341 9.11307 104.244 8.43198 104.036 7.73727C103.827 7.04256 103.522 6.42957 103.105 5.8847C102.702 5.33983 102.188 4.89031 101.604 4.56339C101.327 4.41355 101.035 4.29095 100.729 4.20922V14.7525ZM100.354 4.11387C100.188 4.08663 100.007 4.05938 99.8124 4.05938V14.8206C99.8263 14.8206 99.8402 14.8206 99.8541 14.8206C100.021 14.8206 100.188 14.807 100.354 14.7934V4.11387ZM98.5483 4.14111C98.2149 4.20922 97.9093 4.30457 97.6175 4.44079C97.048 4.69961 96.5757 5.05377 96.1867 5.51691C95.7977 5.98006 95.506 6.49768 95.2976 7.09704C95.0892 7.6964 94.992 8.33663 94.992 9.00409C94.992 9.71243 95.1031 10.4071 95.3115 11.0882C95.5199 11.7829 95.8394 12.3959 96.27 12.9544C96.6868 13.5129 97.2008 13.9624 97.812 14.303C98.0482 14.4392 98.2982 14.5482 98.5622 14.6299L98.5483 4.14111Z" fill="#060807"/>
<path d="M118.538 3.9228C118.524 3.90918 118.51 3.9228 118.483 3.93642C118.288 3.99091 118.066 4.05902 117.844 4.14075C117.621 4.22248 117.51 4.37232 117.51 4.57664L117.538 9.65757V10.5157C117.538 11.3331 117.524 12.1367 117.496 12.9268C117.469 13.7169 117.413 14.5206 117.344 15.3242C117.344 15.3515 117.33 15.3787 117.288 15.3923C117.246 15.4196 117.218 15.406 117.191 15.3787C116.496 14.8066 115.815 14.18 115.121 13.5125C114.426 12.8451 113.759 12.164 113.093 11.4693C112.426 10.7746 111.773 10.0662 111.12 9.35789C110.481 8.64956 109.856 7.95485 109.272 7.28738C109.078 7.08305 108.897 6.87873 108.731 6.68802C108.578 6.49732 108.397 6.29299 108.189 6.08866C108.147 6.47007 108.119 6.83786 108.119 7.17841C108.119 7.70966 108.133 8.24091 108.147 8.78578C108.161 9.31703 108.189 9.84828 108.217 10.3932C108.244 10.9244 108.272 11.4556 108.286 12.0005C108.3 12.5318 108.314 13.0766 108.314 13.6215C108.314 13.8667 108.342 14.0574 108.383 14.2073C108.425 14.3571 108.481 14.4661 108.55 14.5614C108.619 14.6431 108.689 14.7113 108.786 14.7385C108.883 14.7794 108.981 14.793 109.078 14.8066C109.189 14.8339 109.3 14.8611 109.425 14.902C109.536 14.9428 109.675 15.0109 109.828 15.1199C109.856 15.1472 109.87 15.1744 109.856 15.2153C109.842 15.2561 109.828 15.2698 109.786 15.2698C109.647 15.2561 109.509 15.2425 109.37 15.2289C109.231 15.2153 109.092 15.2016 108.953 15.188C108.758 15.1608 108.55 15.1335 108.342 15.1199C108.133 15.1063 107.925 15.0927 107.73 15.0927C107.466 15.0927 107.203 15.1063 106.939 15.1472C106.661 15.188 106.397 15.2153 106.119 15.2698C106.077 15.2834 106.05 15.2698 106.022 15.2289C105.994 15.188 106.008 15.1472 106.036 15.1199C106.147 15.0246 106.258 14.9428 106.341 14.8883C106.438 14.8339 106.522 14.7794 106.605 14.7385C106.772 14.6568 106.925 14.5342 107.064 14.3843C107.203 14.2345 107.272 14.0029 107.272 13.676V3.82745L107.439 3.4869C107.453 3.45966 107.48 3.43241 107.508 3.41879C107.536 3.40517 107.564 3.40517 107.578 3.44603C109.133 5.03978 110.648 6.59267 112.106 8.13193C113.565 9.6712 115.051 11.2649 116.552 12.8996V12.8315C116.552 12.1912 116.552 11.551 116.538 10.9108C116.524 10.2842 116.524 9.63033 116.51 8.97648C116.496 8.37712 116.482 7.72328 116.468 7.04219C116.454 6.3611 116.441 5.72087 116.441 5.10789C116.441 4.8627 116.413 4.672 116.371 4.52216C116.316 4.37232 116.246 4.26334 116.163 4.18161C116.079 4.09988 115.982 4.04539 115.885 4.01815C115.788 3.99091 115.69 3.96366 115.579 3.95004C115.468 3.93642 115.357 3.9228 115.274 3.89555C115.176 3.86831 115.093 3.82745 115.024 3.75934C114.996 3.73209 114.996 3.69123 115.01 3.65036C115.037 3.6095 115.051 3.59587 115.079 3.6095C115.413 3.65036 115.718 3.67761 115.996 3.67761C116.302 3.67761 116.593 3.67761 116.899 3.67761C117.08 3.67761 117.274 3.67761 117.469 3.66398C117.663 3.65036 117.858 3.66398 118.066 3.67761C118.135 3.67761 118.219 3.67761 118.302 3.69123C118.385 3.70485 118.469 3.70485 118.538 3.70485L118.58 3.86831C118.566 3.9228 118.552 3.9228 118.538 3.9228Z" fill="#060807"/>
<path d="M126.679 14.1527C126.637 14.4524 126.595 14.7657 126.554 15.0926C126.554 15.1335 126.526 15.1608 126.47 15.1608L126.443 15.188C126.332 15.2289 126.234 15.2561 126.165 15.2561C125.831 15.2561 125.498 15.2561 125.165 15.2425C124.831 15.2289 124.498 15.2289 124.164 15.2289C123.873 15.2289 123.595 15.2289 123.331 15.2152C123.053 15.2016 122.775 15.2016 122.497 15.2016C122.108 15.2016 121.719 15.2016 121.331 15.2152C120.942 15.2289 120.553 15.2289 120.164 15.2425V15.079C120.372 15.079 120.553 15.0382 120.691 14.9428C120.83 14.8475 120.928 14.7385 120.997 14.5886C121.067 14.4524 121.122 14.289 121.136 14.1119C121.164 13.9348 121.164 13.7577 121.164 13.5806V4.80819C121.164 4.52214 121.094 4.34505 120.955 4.26332C120.817 4.18159 120.678 4.11348 120.511 4.05899C120.428 4.03175 120.33 4.00451 120.219 3.96364C120.108 3.92278 119.997 3.88191 119.886 3.80018C119.858 3.77294 119.844 3.74569 119.858 3.70483C119.872 3.66396 119.886 3.65034 119.927 3.65034H126.054C126.109 3.6231 126.179 3.59585 126.234 3.58223C126.304 3.55499 126.359 3.54137 126.415 3.51412C126.484 3.48688 126.526 3.51412 126.526 3.59585C126.484 3.96364 126.429 4.30419 126.359 4.61749C126.29 4.93079 126.22 5.25771 126.151 5.57101C126.137 5.61188 126.109 5.6255 126.054 5.6255C125.998 5.61188 125.984 5.59826 125.984 5.55739C125.956 5.06701 125.79 4.74008 125.47 4.59024C125.151 4.4404 124.762 4.35867 124.303 4.35867H122.609V8.67678H125.095C125.165 8.67678 125.262 8.64954 125.373 8.60867C125.484 8.56781 125.595 8.52694 125.72 8.48608C125.873 8.40435 126.04 8.33624 126.193 8.29537C126.262 8.26813 126.304 8.29537 126.304 8.3771C126.29 8.54057 126.276 8.73127 126.248 8.92198C126.22 9.11268 126.206 9.30339 126.179 9.46685C126.151 9.63031 126.123 9.80739 126.109 9.9981C126.095 10.1752 126.068 10.3523 126.04 10.5293C126.04 10.5702 126.026 10.5975 125.984 10.6111C125.943 10.6247 125.915 10.6247 125.887 10.5838C125.818 10.5157 125.762 10.4476 125.748 10.3795C125.72 10.3114 125.706 10.2297 125.679 10.1479C125.651 10.0662 125.623 9.98448 125.595 9.88912C125.567 9.80739 125.512 9.72566 125.442 9.65755C125.373 9.58944 125.234 9.53496 125.04 9.49409C124.845 9.45323 124.637 9.42598 124.414 9.41236C124.192 9.38512 123.97 9.38512 123.762 9.38512C123.553 9.38512 123.386 9.38512 123.261 9.38512H122.622V13.7305C122.831 14.0438 123.136 14.2753 123.539 14.4388C123.928 14.6023 124.317 14.684 124.692 14.684C125.192 14.684 125.623 14.5478 125.97 14.289C126.318 14.0301 126.554 13.6624 126.665 13.1856L126.832 13.2265C126.776 13.5398 126.72 13.8531 126.679 14.1527Z" fill="#060807"/>
<path d="M134.611 13.5397C134.347 13.9483 134.014 14.2889 133.597 14.5886C133.194 14.8746 132.736 15.1062 132.249 15.256C131.749 15.4195 131.291 15.5012 130.846 15.5012C130.638 15.5012 130.402 15.474 130.166 15.4331C129.93 15.3786 129.707 15.2969 129.527 15.1879C129.332 15.079 129.179 14.9291 129.054 14.752C128.929 14.5749 128.874 14.357 128.874 14.0846C128.874 13.9211 128.888 13.744 128.929 13.5806C128.971 13.4171 128.999 13.2536 129.027 13.0902L129.138 12.5862C129.138 12.5453 129.166 12.5181 129.221 12.5181C129.277 12.5181 129.304 12.5453 129.304 12.5862V12.8995C129.304 13.1991 129.374 13.458 129.499 13.6759C129.624 13.9075 129.791 14.0982 129.999 14.2616C130.193 14.4251 130.43 14.5477 130.694 14.6158C130.958 14.6975 131.221 14.7248 131.499 14.7248C131.763 14.7248 132.027 14.6839 132.291 14.6022C132.569 14.5205 132.805 14.3979 133.027 14.2344C133.25 14.0709 133.43 13.8802 133.569 13.6487C133.708 13.4171 133.778 13.1583 133.778 12.8858C133.778 12.6134 133.708 12.3546 133.583 12.0958C133.458 11.837 133.277 11.5782 133.069 11.3057C132.861 11.0333 132.611 10.7745 132.333 10.502C132.055 10.2296 131.777 9.97078 131.499 9.69834C131.194 9.41228 130.902 9.12623 130.596 8.84017C130.291 8.55411 130.027 8.25443 129.805 7.95475C129.568 7.65507 129.388 7.34177 129.249 7.04209C129.11 6.72879 129.04 6.41549 129.04 6.08857C129.04 5.6118 129.179 5.20315 129.443 4.84898C129.721 4.50844 130.055 4.22238 130.457 4.00443C130.86 3.78648 131.291 3.62302 131.763 3.51405C132.236 3.40507 132.666 3.35059 133.069 3.35059C133.639 3.35059 134.167 3.41869 134.639 3.55491C134.681 3.58216 134.708 3.6094 134.708 3.63664C134.653 4.33136 134.569 5.03969 134.444 5.76164C134.43 5.80251 134.403 5.82975 134.361 5.82975C134.319 5.82975 134.292 5.80251 134.278 5.76164C134.167 5.27126 133.944 4.84898 133.625 4.49482C133.305 4.14065 132.875 3.96357 132.347 3.96357C131.805 3.96357 131.347 4.14065 130.985 4.4812C130.624 4.82174 130.444 5.27126 130.444 5.80251C130.444 6.08857 130.499 6.34738 130.624 6.57895C130.749 6.82414 130.902 7.05571 131.096 7.27366C131.291 7.50523 131.513 7.72318 131.777 7.94113C132.041 8.15908 132.305 8.37703 132.569 8.6086C132.875 8.85379 133.166 9.09898 133.458 9.3578C133.75 9.61661 134.014 9.88905 134.236 10.1751C134.458 10.4612 134.653 10.7745 134.792 11.0878C134.931 11.4147 135 11.7689 135 12.1366C135 12.6815 134.875 13.131 134.611 13.5397Z" fill="#060807"/>
<path d="M57.9842 11.5648C57.7897 11.9599 57.5396 12.3004 57.2201 12.5865C56.9006 12.8725 56.5394 13.1041 56.1088 13.2539C55.692 13.4174 55.2475 13.4991 54.7891 13.4991C54.4001 13.4991 54.0111 13.4038 53.5944 13.2267C53.1776 13.0496 52.8025 12.8044 52.4691 12.5047C52.1218 12.205 51.844 11.8781 51.6217 11.4967C51.3995 11.1153 51.2883 10.7475 51.2883 10.3525C51.2883 9.76675 51.3439 9.26274 51.455 8.85408C51.5662 8.43181 51.7468 8.07764 51.9829 7.79158C52.233 7.50553 52.5525 7.26033 52.9414 7.06963C53.3443 6.87892 53.8305 6.72908 54.414 6.60649L54.5668 6.59287C55.0947 6.552 55.567 6.63373 56.0254 6.81081C56.47 7.00152 56.8589 7.26033 57.1923 7.60088C57.5257 7.94142 57.7897 8.33646 57.9842 8.7996C58.1786 9.26274 58.2759 9.75312 58.2759 10.2571C58.262 10.7339 58.1647 11.1698 57.9842 11.5648ZM54.664 7.00152C54.5529 7.00152 54.4556 7.01514 54.3584 7.01514V13.0632C54.4556 13.0905 54.5529 13.1041 54.664 13.1041V7.00152ZM55.3864 13.0768C55.6087 13.036 55.8031 12.9815 55.9837 12.8861C56.3033 12.7363 56.5672 12.5183 56.7895 12.2595C57.0117 12.0007 57.1645 11.701 57.2757 11.3605C57.3868 11.02 57.4424 10.6522 57.4424 10.2708C57.4424 9.87572 57.3868 9.49431 57.2618 9.09928C57.1368 8.70425 56.9701 8.35008 56.7339 8.0504C56.4977 7.7371 56.2199 7.4919 55.8726 7.3012C55.7198 7.21947 55.5531 7.15136 55.3725 7.09687V13.0768H55.3864ZM55.178 7.02876C55.0808 7.01514 54.9835 7.00152 54.8724 7.00152V13.1177H54.8863C54.9835 13.1177 55.0808 13.1177 55.1641 13.1041L55.178 7.02876ZM54.15 7.04239C53.9555 7.08325 53.7888 7.13774 53.6221 7.20585C53.3026 7.35569 53.0248 7.56001 52.8164 7.81883C52.5942 8.07764 52.4275 8.37732 52.3163 8.71787C52.1913 9.05841 52.1357 9.41258 52.1357 9.80761C52.1357 10.2026 52.1913 10.5977 52.3163 10.9927C52.4413 11.3877 52.6219 11.7419 52.8581 12.0552C53.0943 12.3685 53.386 12.6273 53.7333 12.818C53.8722 12.8998 54.0111 12.9542 54.1639 13.0087L54.15 7.04239Z" fill="#060807"/>
</g>
<defs>
<clipPath id="clip0">
<rect width="135" height="17" fill="white"/>
</clipPath>
</defs>
</svg>
