<svg width="98" height="17" viewBox="0 0 98 17" fill="none" xmlns="http://www.w3.org/2000/svg">
<g clip-path="url(#clip0)">
<path d="M26.5553 0.891602H21.7012L21.6694 0.923404V12.3405L21.7012 12.3723H23.6682L23.6999 12.3405V2.16371V2.1319H25.9525C26.7774 2.1319 27.2216 2.95877 27.2216 4.4853C27.2216 5.98002 26.7774 6.83869 25.9525 6.83869H24.5883L24.5565 6.8705V8.04719L24.5883 8.07899H26.5236C27.1898 8.07899 27.8878 7.76097 28.3637 7.22032C28.9348 6.58427 29.2521 5.63019 29.2521 4.5171C29.2838 2.29092 28.2051 0.891602 26.5553 0.891602Z" fill="#0070D1"/>
<path d="M32.4883 0.890625H30.5212L30.4895 0.922428V12.3396L30.5212 12.3714H32.4883L32.52 12.3396V0.922428L32.4883 0.890625Z" fill="#0070D1"/>
<path d="M41.1177 3.65729L41.086 3.62549H37.5644C34.4234 3.62549 34.011 5.94708 34.011 7.98245V9.73159C34.011 11.2581 34.9628 12.3394 36.2318 12.3394H38.1354L38.1672 12.3076V11.1309L38.1354 11.0991H36.7712C36.4539 11.0991 36.0415 10.9719 36.0415 9.8906V7.98245C36.0415 6.71034 36.1684 5.91528 36.4222 5.43824C36.7077 4.9294 37.1519 4.86579 37.5644 4.86579H39.0555V4.89759V12.3394L39.0872 12.3712H41.0543L41.086 12.3394V3.7209V3.65729H41.1177Z" fill="#0070D1"/>
<path d="M55.2995 5.66102L54.3159 5.59741C53.5862 5.53381 53.0469 5.12037 53.0469 3.94368C53.0469 2.54436 53.6814 2.16273 54.5063 2.16273H57.2031L57.2348 2.13093V0.922428L57.2031 0.890625H57.1396H54.2525C52.4124 0.890625 51.1116 1.97191 51.1116 4.13449V4.2299C51.1116 5.94724 52.1585 7.15574 53.7131 7.28295L54.6967 7.34656C55.4264 7.41016 55.9023 8.04622 55.9023 9.0639V9.35012C55.9023 9.98618 55.7436 11.1311 54.4111 11.1311H51.6826H51.6192L51.5875 11.1629V12.3396L51.6192 12.3714H55.0774C56.1561 12.3714 57.9328 11.9261 57.9328 9.0321C57.9328 7.98261 57.6789 7.15574 57.2031 6.55149C56.7589 6.01085 56.1561 5.72462 55.2995 5.66102Z" fill="#0070D1"/>
<path d="M71.48 3.65729L71.4483 3.62549H67.9267C64.7857 3.62549 64.3733 5.94708 64.3733 7.98245V9.73159C64.3733 11.2581 65.3251 12.3394 66.5941 12.3394H68.4977L68.5295 12.3076V11.1309H67.1652C66.848 11.1309 66.4355 11.0037 66.4355 9.92241V8.01425C66.4355 6.74215 66.5624 5.94708 66.8162 5.47004C67.1018 4.9612 67.5459 4.89759 67.9584 4.89759H69.4495V4.9294V12.3712L69.4813 12.403H71.4483L71.48 12.3712V3.65729Z" fill="#0070D1"/>
<path d="M63.5483 3.62552H61.4226V2.1944L61.3909 2.1626H59.4238L59.3921 2.1944V9.76343C59.3921 11.29 60.3439 12.3712 61.6129 12.3712H63.0406L63.0724 12.3394V11.1627L63.0406 11.1309H62.184C61.9619 11.1309 61.4543 11.0991 61.4543 9.98604V4.89762C62.0888 4.89762 63.58 4.89762 63.58 4.89762L63.6117 4.86582V3.68912L63.5483 3.62552Z" fill="#0070D1"/>
<path d="M77.3175 3.62552H75.1919V2.1944L75.1601 2.1626H73.1931L73.1614 2.1944V9.76343C73.1614 11.29 74.1132 12.3712 75.414 12.3712H76.8099L76.8416 12.3394V11.1627L76.7782 11.1309H75.9216C75.6995 11.1309 75.1919 11.0991 75.1919 9.98604V4.89762C75.8581 4.89762 77.3175 4.89762 77.3175 4.89762L77.3493 4.86582V3.68912L77.3175 3.62552Z" fill="#0070D1"/>
<path d="M80.5857 3.62549H78.5869L78.5552 3.65729V12.3394L78.5869 12.3712H80.5857L80.6174 12.3394V3.65729L80.5857 3.62549Z" fill="#0070D1"/>
<path d="M80.5857 0.890625H78.5869L78.5552 0.922428V2.57616L78.5869 2.60797H80.5857L80.6174 2.57616V0.922428L80.5857 0.890625Z" fill="#0070D1"/>
<path d="M94.2277 3.62549H90.706L90.6743 3.65729V12.3394L90.706 12.3712H92.6731L92.7048 12.3394V4.89759H94.196C94.6084 4.89759 95.0526 4.9612 95.3381 5.43824C95.5919 5.85167 95.7188 6.61494 95.7188 7.79163C95.7188 7.85524 95.7188 12.3712 95.7188 12.3712L95.7505 12.403H97.7176L97.7493 12.3712V7.98245C97.781 5.94708 97.3686 3.62549 94.2277 3.62549Z" fill="#0070D1"/>
<path d="M85.63 3.62549C82.3304 3.62549 81.918 5.94708 81.918 7.98245C81.918 10.0178 82.3304 12.3712 85.63 12.3712C88.9295 12.3712 89.342 10.0178 89.342 7.98245C89.342 5.97888 88.9295 3.62549 85.63 3.62549ZM86.899 10.5585C86.5817 11.0673 86.0741 11.1309 85.63 11.1309C85.1858 11.1309 84.6782 11.0673 84.3926 10.5585C84.1071 10.0814 83.9802 9.28636 83.9802 8.01425C83.9802 6.51953 84.1705 5.66086 84.583 5.24742C84.8368 4.993 85.1541 4.89759 85.6617 4.89759C86.1693 4.89759 86.4866 4.993 86.7404 5.24742C87.1528 5.66086 87.3432 6.51953 87.3432 8.01425C87.3115 9.28636 87.1846 10.0814 86.899 10.5585Z" fill="#0070D1"/>
<path d="M42.228 3.62549L42.1963 3.65729L45.1151 12.244V12.3394L43.4653 16.5692L43.4971 16.601H45.2103L45.242 16.5692L50.3817 3.65729V3.62549H48.5098L48.4464 3.65729L46.289 9.31816H46.2573L44.322 3.65729L44.2902 3.62549H42.228Z" fill="#0070D1"/>
<path d="M6.72656 0V11.767L9.39159 12.6256V2.76683C9.39159 2.28979 9.58194 2.00357 9.93093 2.09897C10.3751 2.22618 10.4386 2.63962 10.4386 3.11666V7.06018C12.0883 7.85525 13.3891 7.06018 13.3891 4.96121C13.3891 2.79863 12.6277 1.81275 10.3751 1.04949C9.51849 0.699658 7.86872 0.222618 6.72656 0Z" fill="#0070D1"/>
<path d="M9.89916 10.877L14.1822 9.35047C14.6581 9.19146 14.7533 8.93704 14.3409 8.80983C13.9601 8.68262 13.2304 8.71442 12.7545 8.90523L9.89916 9.92292V8.33279L10.0578 8.26918C10.0578 8.26918 10.8827 7.98296 12.0248 7.85575C13.167 7.72854 14.5947 7.88755 15.7051 8.30098C16.9424 8.68262 17.1011 9.28687 16.7838 9.7003C16.4665 10.1137 15.6734 10.4 15.6734 10.4L9.86743 12.4989V10.877H9.89916Z" fill="#0070D1"/>
<path d="M1.87239 10.7173C0.571602 10.3675 0.381243 9.6042 0.952319 9.15897C1.49167 8.74553 2.41174 8.45931 2.41174 8.45931L6.21891 7.0918V8.65013L3.49044 9.63601C3.01454 9.82682 2.91936 10.0494 3.3318 10.1767C3.71252 10.3039 4.44223 10.2721 4.91813 10.0812L6.21891 9.6042V10.9717C6.12373 10.9717 6.02855 11.0035 5.9651 11.0035C4.63259 11.2579 3.23662 11.1943 1.87239 10.7173Z" fill="#0070D1"/>
</g>
<defs>
<clipPath id="clip0">
<rect width="97.1464" height="16.601" fill="white" transform="translate(0.634766)"/>
</clipPath>
</defs>
</svg>
