<svg width="127" height="35" viewBox="0 0 127 35" fill="none" xmlns="http://www.w3.org/2000/svg">
<g clip-path="url(#clip0)">
<path d="M127 1.24206H123.817L97.734 1.16443H96.492L96.1815 2.32885L91.9895 18.4756L90.5922 23.9095L94.5513 20.0281L99.2866 15.3704L99.4419 15.6033L100.684 18.0098L89.6607 32.1381L87.72 34.6223H90.8251L115.666 34.9328H116.831L117.141 33.846L122.342 17.0006L123.895 11.8771L119.78 15.3704L113.57 20.7268L113.027 18.7084L124.982 3.72616L127 1.24206ZM103.168 11.5666L105.885 11.6443L104.488 13.2745H101.305L103.168 11.5666ZM109.378 24.3753H108.602L109.456 23.1333L111.008 22.9004L109.378 24.3753Z" fill="black"/>
<path d="M88.3411 31.2066L89.8937 21.9688L90.2818 19.7952L88.1082 20.1834L86.6333 20.4163L88.4187 8.15098L88.7292 5.89976L86.478 6.44315L80.8111 7.76284L79.802 7.99572L79.6467 9.00489L78.5599 15.3704L78.7152 10.6351L78.7928 8.84963L77.0073 9.08252L73.2812 9.54829L71.9615 9.70355L71.8839 11.0232V11.5666L71.8062 11.2561L71.5734 9.93643L70.2537 10.0141L66.3723 10.2469H65.2078L64.9749 11.4114L64.8973 11.9548C64.4315 11.6443 64.0434 11.4114 63.6553 11.1785C62.6461 10.7127 61.5593 10.4798 60.3172 10.4798C60.162 10.4798 59.9291 10.4798 59.7738 10.4798L55.1161 10.9456L53.6412 11.1009V11.2561H51.2347H49.7598L49.6822 12.5758L49.3716 11.8771L48.9835 11.0232H47.9743H44.9468H43.5495L43.3943 12.4205L43.3166 12.9639L42.8509 12.5758C40.2115 10.4022 37.8826 9.39303 35.6314 9.39303C33.5355 9.39303 31.5947 10.0141 29.8093 11.2561L29.5764 10.3246L29.3435 9.3154L28.412 9.08252L23.9872 8.07335L22.5899 7.76284C21.8912 6.90892 20.9597 6.21027 20.0281 5.58924C18.6308 4.6577 12.4205 2.40648 12.4205 2.40648L12.3429 4.6577V4.73533C10.6351 2.94988 8.69438 1.6302 6.67604 0.93154C4.73533 0.310513 3.18276 0 1.78545 0H0L0.232885 1.78545L1.78545 13.2745L1.94071 14.4389L3.10513 14.5941L3.88142 14.7494L5.66687 30.1974L5.89976 32.2934L7.84047 31.4395C9.08252 30.8961 10.1693 30.2751 11.1785 29.4988L11.1009 30.8961L10.9456 32.6039L12.6534 32.5263L17.544 32.371H18.3979L18.7084 33.2249L20.1057 32.6815L24.3753 30.9737L24.9963 30.8961L26.2384 30.8185L26.316 30.3527L26.5489 31.2842L26.8594 32.6039L28.1791 32.4487L31.6724 32.1381C32.9921 32.6815 34.1565 32.9921 35.3209 32.9921C35.3985 32.9921 35.4762 32.9921 35.5538 32.9921C36.7958 32.9921 37.9603 32.6815 38.8918 31.9829L40.6773 30.5856L40.7549 30.5079L40.8325 30.4303C41.2207 30.0422 41.6088 29.5764 41.9193 29.1106L41.8417 31.0513L41.6864 32.6815L43.3166 32.7592L48.5177 32.9144H49.8374L49.9927 33.1473H51.0018L54.6504 33.0697L56.2029 32.9921V32.4487H56.9016C58.3765 32.5263 59.541 32.6039 60.5501 32.6039C61.5593 32.6039 62.3356 32.5263 62.879 32.4487C63.0342 32.4487 63.1119 32.371 63.2671 32.371L66.838 32.7592L68.313 32.9144L68.5459 31.5947L68.6235 32.371L70.0984 32.2158L74.4456 31.8276L76.0758 31.6724L75.8429 33.1473L77.7836 33.0697L87.0214 32.5263L88.2635 32.4487L88.3411 31.2066ZM43.0837 16.0691L42.9285 18.0874H42.7732L43.0837 16.0691ZM75.7653 30.3527L76.2311 30.2751L76.0758 31.2842V31.5171L75.7653 30.3527Z" fill="black"/>
<path fill-rule="evenodd" clip-rule="evenodd" d="M90.1265 33.4578L102.081 18.0874L100.218 14.4389H105.109L108.369 10.4798L102.702 10.3246L92.7658 20.1057L97.4235 2.25122L124.593 2.40648L111.862 18.3203L112.716 21.5031L108.835 22.0465L106.351 25.5397H109.766L121.721 15.2928L116.054 33.7683L90.1265 33.4578Z" fill="#E62229"/>
<path d="M97.734 2.63932L123.817 2.71695L111.474 18.2426L112.25 21.1149L108.68 21.6583L105.652 25.8502H109.999L121.022 16.3795L115.744 33.3802L90.9027 33.0696L102.547 18.0874L100.839 14.7493H105.264L109.145 10.014L102.547 9.85876L93.4644 18.7084L97.734 2.63932ZM97.1129 1.86304L96.9577 2.48406L92.7657 18.6308L92.0671 21.3478L94.0854 19.407L102.935 10.7903L107.593 10.8679L104.953 14.0507H100.839H99.5194L100.14 15.2151L101.615 18.0874L90.2816 32.6039L89.3501 33.8459H90.9027L115.744 34.1564H116.287L116.442 33.613L121.643 16.7677L122.42 14.2059L120.401 15.9914L109.611 25.2292H107.127L109.068 22.5122L112.328 22.0464L113.182 21.8912L112.949 21.0372L112.25 18.4755L124.36 3.26035L125.37 2.01829H123.739L97.6563 1.94067L97.1129 1.86304Z" fill="black"/>
<path fill-rule="evenodd" clip-rule="evenodd" d="M80.8887 9.00496L87.3319 7.45239L85.2359 21.8913L88.8068 21.2702L87.099 31.3619L77.085 31.983L80.8887 9.00496Z" fill="#E62229"/>
<path d="M86.8661 7.99574L84.7701 22.357L88.341 21.736L86.7885 30.9737L77.5507 31.5171L81.1992 9.31542L86.8661 7.99574ZM87.7976 6.98657L86.7108 7.21946L81.044 8.53914L80.5782 8.6944L80.5006 9.23779L76.852 31.4395L76.6968 32.371L77.6283 32.2934L86.8661 31.75H87.4871L87.5647 31.129L89.1173 21.8912L89.2726 20.8044L88.1858 21.0373L85.7017 21.5031L87.6424 8.22863L87.7976 6.98657Z" fill="black"/>
<path fill-rule="evenodd" clip-rule="evenodd" d="M73.1259 10.7903L77.6283 10.2469L77.3178 21.5807L81.1216 20.8044L80.4229 28.5672L72.0391 29.654L73.1259 10.7903Z" fill="#E62229"/>
<path d="M77.2401 10.635L76.852 22.124L80.6558 21.2701L80.0347 28.2567L72.3495 29.1882L73.4363 11.1008L77.2401 10.635ZM78.094 9.78113L77.1625 9.85876L73.4363 10.3245L72.8153 10.4022V11.0232L71.7285 29.1106L71.6509 30.0421L72.5824 29.9645L80.2676 29.033L80.8886 28.9553L80.9663 28.3343L81.5873 21.3478L81.6649 20.261L80.6558 20.4938L77.8611 21.1149L78.1717 10.7127L78.094 9.78113Z" fill="black"/>
<path fill-rule="evenodd" clip-rule="evenodd" d="M62.3357 31.1289L66.1395 11.3337L70.6419 11.1008L74.6786 30.6632L69.5551 31.0513L68.7788 25.6173L68.1578 25.695L67.3039 31.6723L62.3357 31.1289ZM68.3907 20.7267L68.3131 19.9505L68.1578 20.7267H68.3907Z" fill="#E62229"/>
<path d="M70.3314 11.4889L74.2128 30.3526L69.8656 30.6631L69.0893 25.2291L67.8473 25.3068L66.9933 31.2065L62.879 30.7408L66.5276 11.7218L70.3314 11.4889ZM67.692 21.1148H68.7788L68.5459 16.69L67.692 21.1148ZM70.9524 10.7126H70.2537L66.3723 10.9455H65.7513L65.6737 11.5666L62.0251 30.5855L61.8699 31.4394L62.7238 31.517L66.8381 31.9828L67.6144 32.0604L67.692 31.2842L68.4683 26.2383L69.1669 30.7408L69.2446 31.4394L69.9432 31.3618L74.2904 30.9736L75.1443 30.896L74.9891 30.0421L71.1076 11.1784L70.9524 10.7126Z" fill="black"/>
<path fill-rule="evenodd" clip-rule="evenodd" d="M60.4725 31.4395C59.541 31.4395 58.3766 31.3619 56.9016 31.3619H56.5911L55.9701 20.261L54.9609 19.3295L54.8057 12.1101L59.6963 11.7219C59.8515 11.7219 60.0068 11.7219 60.2396 11.7219C61.3264 11.7219 62.258 11.8772 63.1119 12.2653C63.8882 12.6535 64.6645 13.1969 65.596 14.0508C66.8381 15.2928 67.0709 17.3888 66.217 20.1834C65.9065 21.1926 65.1302 22.0465 63.8106 22.8228L64.8197 24.0648C65.2079 24.5306 65.5184 24.9964 65.6736 25.4621C65.9065 26.0832 66.0618 26.7818 65.9841 27.5581C65.9065 28.4897 65.5184 29.3436 64.8197 30.1198C64.1211 30.8961 63.3448 31.2843 62.6461 31.4395C62.1804 31.4395 61.4817 31.4395 60.4725 31.4395ZM60.5502 27.3252C60.5502 27.2476 60.5502 27.17 60.5502 27.0923C60.5502 27.0147 60.5502 26.9371 60.4725 26.8595L60.5502 27.3252ZM59.9291 19.0966C60.162 18.7085 60.3173 18.1651 60.3173 17.6217C60.3173 16.923 60.0068 16.6901 59.7739 16.5349L59.9291 19.0966Z" fill="#E62229"/>
<path d="M60.2396 12.11C61.2488 12.11 62.1027 12.2653 62.9566 12.6534C63.6553 12.9639 64.4315 13.5073 65.2854 14.3612C66.3722 15.5257 66.6051 17.3888 65.7512 20.1057C65.4407 21.1149 64.5868 21.9688 63.1119 22.7451L64.4315 24.2977C64.8197 24.7634 65.0526 25.2292 65.2078 25.5397C65.4407 26.0831 65.5183 26.7042 65.5183 27.4028C65.4407 28.1791 65.1302 28.9554 64.4315 29.7317C63.8105 30.4303 63.1119 30.8185 62.4908 30.8961C62.1027 31.0513 61.404 31.0513 60.4725 31.0513C59.541 31.0513 58.3765 31.0513 56.9016 30.9737L56.2806 20.1057L55.2714 19.1742L55.1161 12.4982L59.6186 12.11C59.9291 12.11 60.0844 12.11 60.2396 12.11ZM59.6186 20.0281C60.3949 19.4071 60.7054 18.5532 60.7054 17.544C60.6277 16.5348 60.162 15.9914 59.3857 15.9914L59.6186 20.0281ZM60.2396 28.1791C60.783 27.8686 61.0159 27.5581 60.9383 27.0147C60.8606 26.5489 60.5501 26.1608 60.0067 25.7726L60.2396 28.1791ZM60.2396 11.3337C60.0844 11.3337 59.9291 11.3337 59.6962 11.3337L55.1161 11.7219L54.4175 11.7995V12.4982L54.5727 19.1742V19.4847L54.8056 19.7176L55.5819 20.4163L56.1253 30.9737V31.6724H56.824C58.2989 31.75 59.4633 31.75 60.3949 31.75C61.404 31.75 62.1027 31.6724 62.5685 31.5947C63.4224 31.4395 64.1987 30.9737 64.9749 30.1974C65.7512 29.3435 66.217 28.412 66.217 27.4028C66.2946 26.6265 66.1394 25.8502 65.9065 25.1516C65.6736 24.6858 65.3631 24.1424 64.9749 23.6766L64.1987 22.8227C65.3631 22.0465 66.1394 21.1925 66.3722 20.1834C67.2262 17.2335 66.9933 15.0599 65.6736 13.6626C64.7421 12.8087 63.9658 12.1877 63.1119 11.7995C62.3356 11.489 61.3264 11.3337 60.2396 11.3337Z" fill="black"/>
<path fill-rule="evenodd" clip-rule="evenodd" d="M49.2164 28.9555L48.9835 31.7501L43.0061 31.5948L44.6363 12.1101H48.2848L50.6137 17.0007L50.9242 12.343H54.728L55.0385 31.8277L50.7689 31.983L49.2164 28.9555Z" fill="#FAE62A"/>
<path d="M48.0519 12.4982L50.9241 18.4756L51.3123 12.6535H54.3398L54.6503 31.4395L51.0018 31.5172L48.9834 27.4805L48.5953 31.2066L43.3942 31.0514L44.9468 12.3429H48.0519V12.4982ZM48.5177 11.7219H48.0519H45.0244H44.2481L44.1705 12.4206L42.6179 31.129L42.5403 31.9829H43.3942L48.5953 32.1382H49.294L49.3716 31.4395L49.4492 30.3527L50.2255 31.9053L50.4584 32.3711H50.9241L54.5727 32.2934H55.349V31.5172L55.1161 12.7311V11.9548H54.3398H51.3123H50.6136L50.536 12.6535L50.3031 15.5257L48.6729 12.1877L48.5177 11.7219Z" fill="black"/>
<path fill-rule="evenodd" clip-rule="evenodd" d="M35.3988 31.75C34.0015 31.75 32.4489 31.2843 30.7411 30.3527C28.9556 29.3436 27.8688 28.0239 27.4031 26.1608C27.0149 24.8411 26.9373 23.0557 27.0925 20.6492C27.2478 18.6308 27.4807 17.0006 27.9465 15.681C28.4122 14.3613 28.9556 13.3521 29.6543 12.7311C31.5174 11.2561 33.5357 10.4799 35.6317 10.4799C37.5724 10.4799 39.746 11.489 42.0748 13.4297L42.2301 13.585L41.4538 19.0966L42.3853 19.1742L42.2301 24.5306C42.2301 24.9187 41.9972 25.7726 41.609 27.0923C41.2985 28.0239 40.8328 28.8002 40.0565 29.4988L38.1934 30.9737C37.4947 31.5171 36.5632 31.75 35.554 31.75C35.6317 31.75 35.3988 31.75 35.3988 31.75ZM35.6317 16.6125C34.0791 16.6125 33.0699 17.6993 32.7594 19.8729C32.5265 21.2702 32.6042 22.2794 33.1476 22.8228C33.5357 23.3662 34.4672 23.7543 35.8646 23.9872C36.1751 24.0648 36.4856 24.0648 36.7185 24.0648C37.029 24.0648 37.3395 23.9872 37.4947 23.8319C37.65 23.6767 37.65 23.2885 37.4947 22.9004L34.0791 22.5123L34.0015 18.3203L38.1934 18.7861L38.0381 18.5532C37.65 17.3112 36.8737 16.6125 35.7093 16.6125H35.6317Z" fill="#FAE62A"/>
<path d="M35.6315 10.868C37.417 10.868 39.513 11.7995 41.8418 13.7402L41.0655 18.7861L38.3485 18.3979C37.8828 17.0006 37.0288 16.2243 35.7092 16.1467C35.6315 16.1467 35.6315 16.1467 35.5539 16.1467C33.7685 16.1467 32.6817 17.3111 32.2935 19.7176C32.0606 21.1925 32.2159 22.2793 32.7593 22.978C33.2251 23.599 34.2342 24.0648 35.7092 24.2977C36.0973 24.3753 36.4078 24.3753 36.6407 24.3753C37.8051 24.3753 38.1933 23.7543 37.7275 22.4346L34.3119 22.0464L34.2342 18.6308L41.9194 19.4071L41.7642 24.3753C41.7642 24.7634 41.5313 25.5397 41.1431 26.8594C40.9103 27.7133 40.4445 28.412 39.7458 29.1106L38.038 30.6632C37.417 31.129 36.6407 31.3618 35.6315 31.3618C35.5539 31.3618 35.4763 31.3618 35.3986 31.3618C34.0013 31.3618 32.5264 30.8961 30.8962 29.9645C29.266 29.033 28.1792 27.7133 27.7134 26.0055C27.3253 24.7634 27.2477 22.978 27.4029 20.6491C27.4806 18.7861 27.7911 17.0782 28.2568 15.7585C28.7226 14.4389 29.266 13.5073 29.887 12.9639C31.6725 11.5666 33.5356 10.868 35.6315 10.868ZM35.6315 10.0917C33.3803 10.0917 31.2843 10.868 29.4213 12.4205C28.645 13.1192 28.024 14.1283 27.5582 15.5257C27.0924 16.8453 26.7819 18.4755 26.7043 20.5715C26.549 22.978 26.7043 24.8411 27.0924 26.1607C27.6358 28.1015 28.8002 29.5764 30.6633 30.5856C32.4488 31.5947 34.079 32.0605 35.5539 32.0605C35.6315 32.0605 35.7092 32.0605 35.7868 32.0605C36.8736 32.0605 37.8828 31.75 38.659 31.2066L40.4445 29.8093C41.2208 29.033 41.7642 28.1791 42.0747 27.2475C42.6181 25.4621 42.6957 24.8411 42.6957 24.5306L42.851 19.5623V18.8637L42.1523 18.7861H41.9971L42.6957 13.8955L42.7733 13.4297L42.4628 13.1192C39.9011 11.1008 37.6499 10.0917 35.6315 10.0917ZM33.8461 17.9321C34.3895 17.0782 35.0881 17.0006 35.7092 17.0006H35.7868C36.7183 17.0006 37.2617 17.4664 37.6499 18.3203L34.5447 18.0098L33.8461 17.9321ZM33.6908 22.8227C33.5356 22.7451 33.4579 22.6675 33.4579 22.5898C33.0698 22.1241 32.9922 21.1925 33.1474 19.9505C33.2251 19.3295 33.3803 18.7861 33.6132 18.3979V18.7861L33.6908 22.2017V22.8227ZM36.7183 23.6766C36.4854 23.6766 36.2526 23.6766 35.8644 23.599C34.6224 23.3661 34.0013 23.1332 33.6132 22.8227L34.2342 22.9004L37.1065 23.2109C37.1841 23.5214 37.1065 23.599 37.1065 23.599C37.1841 23.599 37.1065 23.6766 36.7183 23.6766Z" fill="black"/>
<path fill-rule="evenodd" clip-rule="evenodd" d="M26.4712 25.6174L25.9278 25.695L25.3068 29.7317L19.8728 30.1198L23.2885 9.08252L28.4119 10.2469L32.7591 30.8185L27.7909 31.2842L26.4712 25.6174Z" fill="#FAE62A"/>
<path d="M23.6765 9.54824L28.1014 10.5574L32.2933 30.5079L28.1014 30.896L26.7817 25.2292L25.6173 25.3068L24.9962 29.3435L20.4162 29.654L23.6765 9.54824ZM25.6173 20.882H26.4712L26.0054 17.6216L25.6173 20.882ZM22.9779 8.6167L22.8226 9.47061L19.5622 29.654L19.407 30.5079L20.4162 30.4303L24.9962 30.1198L25.6173 30.0421L25.6949 29.4211L26.1606 26.2383L27.3251 30.9737L27.4803 31.5947L28.179 31.5171L32.3709 31.1289L33.2248 31.0513L33.0696 30.1974L28.8776 10.2469L28.7224 9.93638L28.2566 9.85875L23.8318 8.84958L22.9779 8.6167Z" fill="black"/>
<path fill-rule="evenodd" clip-rule="evenodd" d="M17.9322 28.1016L17.8546 31.2067L12.1877 31.362L13.5074 4.42493L13.9732 4.50256C14.2061 4.58018 14.439 4.58018 14.6719 4.65781C14.9824 4.73544 15.2929 4.81307 15.6034 4.8907C16.9231 5.20121 18.1651 5.74461 19.4072 6.52089C20.6492 7.21955 21.6584 8.22872 22.4347 9.39314C23.5991 11.0233 24.1425 12.8088 24.1425 14.8271C24.0649 17.6994 22.9005 20.1059 20.5716 21.9689L25.1517 29.4989L19.4072 31.7501L17.9322 28.1016ZM18.8638 17.5441C19.0967 17.3889 19.1743 17.0784 19.1743 16.7678C19.1743 16.3797 19.0967 16.0692 18.9414 15.8363L18.8638 17.5441Z" fill="#FAE62A"/>
<path d="M13.8179 4.89065C14.2837 4.96828 14.8271 5.12353 15.4481 5.27879C16.6901 5.5893 17.9322 6.05507 19.1742 6.83136C20.3387 7.53001 21.3478 8.46155 22.0465 9.54835C23.1333 11.1009 23.6767 12.8087 23.6767 14.7494C23.5991 17.6217 22.357 20.0282 19.9505 21.736L24.453 29.1883L19.4848 31.129L17.4664 26.1608L17.3888 30.8185L12.4982 30.9738L13.8179 4.89065ZM18.4756 18.1651C19.1742 18.0098 19.5624 17.5441 19.64 16.7678C19.64 15.9915 19.4071 15.3705 18.7085 14.9047L18.4756 18.1651ZM13.1192 3.95911L13.0416 4.89065L11.7996 30.9738L11.7219 31.8277H12.5758L17.4664 31.6724H18.2427V30.8961V30.1199L18.7861 31.5172L19.0966 32.2158L19.7953 31.9053L24.7635 29.9646L25.6174 29.6541L25.1516 28.8778L21.0373 22.0465C23.2886 20.1834 24.453 17.777 24.5306 14.8271C24.5306 12.7311 23.9872 10.7904 22.7452 9.16021C21.9689 7.99578 20.8821 6.98661 19.64 6.21033C18.3203 5.43405 17.0783 4.89065 15.681 4.58013C15.3705 4.50251 15.0599 4.42488 14.7494 4.34725C14.5165 4.26962 14.2837 4.19199 14.0508 4.19199L13.1192 3.95911Z" fill="black"/>
<path fill-rule="evenodd" clip-rule="evenodd" d="M4.89073 13.6626L3.02765 13.3521L1.31982 1.16443H1.78559C3.02765 1.16443 4.50259 1.47494 6.21041 2.09597C8.61689 2.94988 10.7129 4.58008 12.6536 7.06418C13.818 8.53912 14.6719 10.2469 15.1377 12.2653C15.7587 14.9046 15.8363 17.6993 15.2153 20.7268C14.2838 25.2292 11.6444 28.4896 7.29721 30.3527L6.83144 30.5856L4.89073 13.6626ZM9.31555 19.2518C10.3247 18.5532 10.8681 17.6216 10.7905 16.3796C10.7905 15.448 10.0918 14.6718 8.69452 14.206L9.31555 19.2518Z" fill="#FAE62A"/>
<path d="M1.78554 1.55253C2.94997 1.55253 4.42491 1.86304 6.0551 2.40644C8.38396 3.26035 10.4799 4.89055 12.343 7.2194C13.5074 8.61671 14.2837 10.3245 14.7495 12.2652C15.3705 14.827 15.3705 17.6216 14.8271 20.5715C13.9732 24.9963 11.4115 28.1014 7.1419 29.8869L5.27882 13.352L3.33811 13.0415L1.78554 1.55253ZM9.00498 19.8728C10.5575 19.0965 11.2562 17.9321 11.1786 16.3795C11.1786 15.1375 10.1694 14.206 8.2287 13.6626L9.00498 19.8728ZM1.78554 0.776245H0.854004L1.00926 1.63016L2.56183 13.1192L2.63946 13.6626L3.18285 13.7402L4.50254 13.9731L6.36562 29.9645L6.52087 31.0513L7.45241 30.6632C11.8772 28.7225 14.5942 25.3844 15.5258 20.7267C16.1468 17.6992 16.1468 14.7494 15.4481 12.11C14.9824 10.0916 14.1285 8.3062 12.8864 6.75363C10.8681 4.19189 8.69447 2.5617 6.21036 1.63016C4.58017 1.08676 3.10523 0.776245 1.78554 0.776245ZM9.62601 18.4755L9.16024 14.7494C10.4023 15.3704 10.4023 16.069 10.4023 16.3019C10.4023 17.2335 10.1694 17.9321 9.62601 18.4755Z" fill="black"/>
<path fill-rule="evenodd" clip-rule="evenodd" d="M42.5404 29.1883C40.9102 29.1883 39.5129 28.5673 38.4261 27.4805C37.3393 26.3937 36.7183 24.9188 36.7183 23.3662C36.7183 21.736 37.2617 20.3387 38.4261 19.2519C39.5905 18.0875 40.9878 17.5441 42.5404 17.5441C44.093 17.5441 45.5679 18.1651 46.6547 19.2519C47.7415 20.3387 48.3625 21.736 48.3625 23.3662C48.3625 24.9964 47.8191 26.3937 46.6547 27.4805C45.5679 28.5673 44.093 29.1883 42.5404 29.1883Z" fill="#F79231"/>
<path d="M42.5403 17.8545C44.0153 17.8545 45.335 18.3979 46.4218 19.4847C47.5086 20.5715 47.9743 21.8136 47.9743 23.3661C47.9743 24.8411 47.5086 26.1608 46.4218 27.2476C45.335 28.3344 44.0929 28.8778 42.5403 28.8778C41.0654 28.8778 39.7457 28.3344 38.6589 27.2476C37.5721 26.1608 37.0287 24.9187 37.0287 23.3661C37.0287 21.8912 37.5721 20.5715 38.6589 19.4847C39.7457 18.3979 40.9878 17.8545 42.5403 17.8545ZM42.5403 17.0782C40.8325 17.0782 39.28 17.6993 38.1155 18.8637C36.9511 20.0281 36.3301 21.5807 36.3301 23.2885C36.3301 24.9963 36.9511 26.4713 38.1155 27.7133C39.28 28.9554 40.8325 29.5764 42.5403 29.5764C44.2482 29.5764 45.7231 28.9554 46.9652 27.7133C48.1296 26.5489 48.7506 25.074 48.7506 23.2885C48.7506 21.5031 48.1296 20.0281 46.9652 18.8637C45.7231 17.6993 44.2482 17.0782 42.5403 17.0782Z" fill="black"/>
<path fill-rule="evenodd" clip-rule="evenodd" d="M42.3852 20.261L43.1614 22.5898H45.6456L43.6272 23.9871L44.4035 26.316L42.3852 24.8411L40.4445 26.316L41.2207 23.9871L39.28 22.5898H41.6865L42.3852 20.261Z" fill="#EE2D2F"/>
</g>
<defs>
<clipPath id="clip0">
<rect width="127" height="34.9328" fill="white"/>
</clipPath>
</defs>
</svg>
