<svg width="65" height="29" viewBox="0 0 65 29" fill="none" xmlns="http://www.w3.org/2000/svg">
<g clip-path="url(#clip0)">
<path fill-rule="evenodd" clip-rule="evenodd" d="M0.991455 8.84503V13.285C0.991455 13.285 12.5184 13.285 14.0342 13.285C15.5499 13.285 17.4887 11.8866 17.4887 9.57921C17.4887 8.67023 17.8412 8.04094 16.7484 6.81732L15.0917 4.85953C14.1399 3.98551 15.1974 3.98551 16.0082 3.98551C16.4664 3.98551 21.5073 3.98551 21.5073 3.98551V13.285H25.8783V3.98551H31.7652V0H12.6946C10.3681 0 9.24008 2.20252 9.31058 3.35622C9.38108 4.50992 9.59259 5.9433 11.5314 7.69133C13.2939 9.26456 10.6501 8.84503 10.4033 8.84503C9.02858 8.84503 0.991455 8.84503 0.991455 8.84503Z" fill="#F8CF0B"/>
<path fill-rule="evenodd" clip-rule="evenodd" d="M41.4239 0H34.3738L30.4258 13.2501H34.8321L35.5371 11.3972H40.1902L40.8952 13.2501H45.1958L41.4239 0ZM36.5241 8.21574L38.0399 3.35622L39.4499 8.21574H36.5241Z" fill="#F8CF0B"/>
<path fill-rule="evenodd" clip-rule="evenodd" d="M59.0843 8.84503C57.3923 8.84503 57.3923 8.21574 57.3923 8.21574C58.8376 8.21574 60.1418 6.11811 60.1418 3.98551C60.1418 1.85291 58.0268 0 56.3348 0C54.6075 0 46.8171 0 46.8171 0V13.2501H51.6465V8.84503C51.6465 8.84503 53.691 11.2224 54.7838 12.2013C55.8413 13.1802 55.947 13.2501 57.3923 13.2501C58.8376 13.2501 64.9712 13.2501 64.9712 13.2501V8.84503C64.9359 8.84503 60.7764 8.84503 59.0843 8.84503ZM54.7133 5.73354C53.4795 5.73354 51.6465 5.73354 51.6465 5.73354V3.35622C51.6465 3.35622 53.7262 3.35622 54.7133 3.35622C56.1233 3.35622 56.3348 5.73354 54.7133 5.73354Z" fill="#F8CF0B"/>
<path fill-rule="evenodd" clip-rule="evenodd" d="M0.991455 14.9629H5.92653L7.1603 19.3679L8.32357 14.9629H13.5054L14.8449 19.3679L16.1844 14.9629H20.4498L16.5369 28.213H12.6241L10.8969 21.9201L8.95808 28.213H4.93952L0.991455 14.9629Z" fill="#F8CF0B"/>
<path fill-rule="evenodd" clip-rule="evenodd" d="M30.5668 15.0327H23.5167L19.5686 28.2828H23.9749L24.6799 26.4299H29.333L30.038 28.2828H34.3386L30.5668 15.0327ZM25.6669 23.2485L27.1827 18.3889L28.5927 23.2485H25.6669Z" fill="#F8CF0B"/>
<path fill-rule="evenodd" clip-rule="evenodd" d="M59.1549 18.9132C58.3442 18.9132 57.4629 19.0181 58.4499 19.8921L60.1067 21.8499C61.1995 23.0736 61.1995 23.598 61.1995 24.5069C61.1995 26.8143 58.9082 28.2128 57.3924 28.2128L46.8525 28.2827C45.4072 28.2827 45.3015 28.1778 44.244 27.2339C43.1864 26.255 41.1067 23.8777 41.1067 23.8777V28.3176H36.2773V15.0326C36.2773 15.0326 44.0677 15.0326 45.7597 15.0326C47.4518 15.0326 49.5668 16.8506 49.5668 19.0181C49.5668 21.1857 48.2625 23.2484 46.8173 23.2484C46.8173 23.2484 47.4518 23.8777 48.5093 23.8777C49.5668 23.8777 53.6911 23.8777 53.6911 23.8777C53.9379 23.8777 56.5817 24.2972 54.8191 22.7239C52.8803 20.9759 52.6688 19.5425 52.5983 18.3888C52.5278 17.2351 53.5501 14.9277 55.8414 14.9277H64.8655V18.9132H59.1549ZM44.1735 20.7662C42.9397 20.7662 41.1067 20.7662 41.1067 20.7662V18.3888C41.1067 18.3888 43.1865 18.3888 44.1735 18.3888C45.5835 18.3888 45.795 20.7662 44.1735 20.7662Z" fill="#F8CF0B"/>
</g>
<defs>
<clipPath id="clip0">
<rect width="63.9445" height="28.2831" fill="white" transform="translate(0.991455)"/>
</clipPath>
</defs>
</svg>
