<svg width="123" height="20" viewBox="0 0 123 20" fill="none" xmlns="http://www.w3.org/2000/svg">
<path d="M123 7.87546L122.631 7.4359L119.347 3.44322L119.033 3.05861L118.535 2.98535L112.556 2.10623L111.91 2.01465L111.449 2.49084L110.028 3.95604L110.268 2.82051L109.014 2.54579L103.515 1.31868L102.002 0.989011L101.928 2.52747L101.891 3.57143L97.8132 1.15385L97.4073 0.915751L96.9275 0.989011L90.0081 2.14286L88.8087 2.34432V4.23077L88.9379 5.43956L89.0855 6.77656L87.7754 3.02198L87.4802 2.21612L86.613 2.16117L80.7822 1.84982L79.7304 1.79487L79.4721 2.82051L78.4573 6.72161L77.6269 3.13187L77.4239 2.25275L76.5198 2.14286L72.9586 1.72161L72.0175 1.61172L71.6301 2.45421L71.1503 3.49817L70.6706 2.14286L70.3938 1.37363L69.5635 1.30037L66.3159 0.970696L65.338 0.879121L64.9874 1.79487L60.6697 13.2601L59.8209 12.4908L60.0608 12.326L60.153 11.7399L60.8726 7.10623L61.0018 6.24542V4.35897L60.2637 3.91941L55.6323 1.15385L55.2448 0.915751L54.802 0.989011L47.9748 1.84982L46.7754 2.01465L46.8308 2.94872L39.6715 1.72161L38.509 1.52015L38.1953 2.65568L38.0846 3.05861L34.8002 1.15385L34.3758 0.897436L33.896 0.989011L27.0873 2.32601L25.8879 2.5641L26.054 3.75458L26.0725 3.86447L22.4374 3.44322L21.7363 3.35165L21.9577 2.10623L20.5738 1.95971L15.3519 1.39194L14.005 1.26374L13.9311 2.38095L10.9419 0.29304L10.5176 0L10.0009 0.0732601L4.57606 0.842491L3.94869 0.934066L3.63501 1.4652L0.959496 6.02564L0.313681 7.08791V8.97436L1.38389 9.6337L2.12196 10.1099L0.608911 12.5092L0 13.4982V15.3846L0.922592 16.0989L4.74212 19.0476L5.12961 19.3407L5.60936 19.304L12.1782 18.8828L12.9163 18.8462L13.2484 18.1868L14.1895 16.337L16.662 18.6081L17.0311 18.956H17.5477H23.8398H24.3749L24.7439 18.5897L27.2165 16.1355L27.3641 15.9707L27.6778 18.37L27.8254 19.5971L29.0801 19.4872L32.5306 19.1575L33.7115 19.0659V17.8938V17.1795V16.0073V15.6777L35.6674 15.6227H36.1656L36.4239 15.3663L36.9037 17.7473L37.1067 18.7729L38.1584 18.7912L47.698 18.956L47.7534 19.5971L49.0635 19.4872L53.0675 19.1209L54.2853 19.0293L54.2484 17.9487L54.7651 18.7363L55.3555 19.6154L56.3335 19.2125L60.5405 17.4908L61.0756 17.2711L61.2232 17.3443L65.9284 19.0476L67.2201 19.5238L67.6076 18.2051L68.8438 13.9927L69.4343 15.1099L70.3753 16.9048L71.6116 15.293L72.4973 14.1392L72.8294 18.2967L72.9401 19.7253L74.3425 19.4689L77.5531 18.8645L81.5572 19.304L82.8303 19.4322L82.9964 18.1868L83.1994 16.5385L84.7309 16.3919L85.0999 18.2784L85.3582 19.5421L86.6314 19.2857L90.451 18.5165L90.5801 19.652L91.8717 19.4689L95.3776 19.011L96.5032 18.8645V17.7839L97.1859 18.8828L97.7948 19.8535L98.8281 19.359L101.393 18.1502L101.356 19.4322L102.814 19.304L106.209 18.9927L107.15 18.9011L107.353 17.9853L107.906 15.4396L108.903 17.6374L109.143 18.1868L109.733 18.3516L115.103 19.8535L115.582 20L116.044 19.7619L121.339 17.0696L121.93 16.7582L122.022 16.1172L122.908 10.3297L123 9.7619V7.87546Z" fill="black"/>
<path d="M118.35 4.24924L112.372 3.37012L109.493 6.35547L108.368 11.447L110.065 15.2199L115.435 16.7218L120.73 14.0295L121.616 8.24191L118.35 4.24924ZM117.077 11.1174L114.604 12.5643L112.409 10.2566L113.922 7.58257L117.059 8.53495V11.1174H117.077Z" fill="#45AF49"/>
<path d="M58.8797 9.67026L59.5809 5.03656L54.9495 2.271L48.1223 3.15012V3.18675L49.3217 3.38821L49.1187 4.63363L48.5836 7.93034L48.4545 8.68125L48.7497 13.5347L49.1003 15.5677L49.2294 16.282L52.9198 15.9523L52.7168 11.4651L55.8352 16.1355L60.0422 14.4139L56.4072 11.1538L58.8797 9.67026ZM55.2816 9.2307L52.7353 9.70689L52.5877 5.23803L55.5584 6.4285L55.2816 9.2307Z" fill="#FBCF08"/>
<path d="M47.126 7.674L47.329 7.72894L47.6611 5.71429L47.8641 4.43224L47.5688 4.37729L46.923 4.2674L39.45 2.98535L39.247 3.71795L39.5792 3.91942L40.3172 4.34066L40.2065 5.20147L39.5238 10.1282L39.4685 10.5678L39.1363 10.8791L37.531 12.4176L38.1768 15.6227L47.6242 15.7875H47.8641L47.495 13.6813L47.292 12.4908L42.3469 13.0952L42.0702 10.696L46.0189 11.2637L46.3326 8.57143H42.31L43.0112 6.50184L47.126 7.674Z" fill="#45AF49"/>
<path d="M38.9149 5.0185L38.878 5.00018L38.306 4.67051L37.734 4.34084L34.1543 2.25293L27.3271 3.58993L27.3825 4.02949L27.6593 4.06612L28.9694 4.23095L28.7664 5.53132L28.1206 9.87198L28.9509 16.3189L32.4199 16.0075V12.5277L35.6305 12.4544L36.1287 11.9782L36.6822 11.4471L37.2358 10.9159L38.2506 9.94524L38.9149 5.0185ZM34.671 9.39579L32.2353 10.0368L31.9217 5.513L35.0585 6.59359L34.671 9.39579Z" fill="#E42926"/>
<path d="M26.2385 5.18299L22.2713 4.7068L22.7695 11.7214L18.8208 12.0694L20.4446 3.24159L15.2043 2.67383L15.1674 3.24159L15.9239 3.77273L15.3519 4.78006L15.0567 5.29288L14.7983 9.50533L15.2412 9.78006L16.2745 10.4028L15.7209 11.465L14.7983 13.2599L17.5477 15.7874H23.8397L26.3123 13.3332L26.8289 9.85331L27.1795 7.50899L27.5117 5.34782L26.8843 5.25625L26.2385 5.18299Z" fill="#FBCF08"/>
<path d="M13.4514 10.2014L7.43614 6.59332L8.63551 4.50541L12.3812 7.38087L13.7836 4.92666L14.2264 4.13911L13.8389 3.8827L10.1855 1.33691L4.74217 2.10614L2.06665 6.66658L8.98609 11.0256L7.63911 12.8387L3.91183 9.70688L1.71606 13.1867L5.5356 16.1354L12.1045 15.7142L13.2485 13.4615L13.9865 12.0146L14.577 10.879L14.0788 10.586L13.4514 10.2014Z" fill="#0B9BD7"/>
<path d="M103.22 2.56396L103.164 4.32221L103.423 4.48704L103.256 5.34785L103.072 6.37349L102.814 13.15L103.164 13.4614L104.622 14.7618L102.851 15.5859L102.721 15.6409L102.703 16.1354L106.08 15.824L107.021 11.5933L108.312 5.73246L108.737 3.79107L103.22 2.56396Z" fill="#0B9BD7"/>
<path d="M101.504 13.6996L98.7174 11.227L101.153 9.85342L101.799 6.22705L102.002 5.10983L101.854 5.01826L97.1674 2.23438L90.2295 3.40654L91.3551 13.1501L91.9455 14.8351L92.4253 16.2087L95.2115 15.8424V11.4468L98.293 16.3186L101.467 14.8168L102.131 14.5054L102.334 14.4139L102.149 14.249L101.504 13.6996ZM97.7209 9.28566L95.0639 9.7069L94.8425 5.58602L97.887 6.61166L97.7209 9.28566Z" fill="#FBCF08"/>
<path d="M86.539 3.44319L80.7082 3.13184L79.0845 9.46883L80.3761 15.0915L80.5975 16.0256L81.7046 16.1538L82.0552 13.4798L85.764 13.1318L86.3729 16.1538L90.3032 15.3663L90.7276 15.2747L90.0818 13.4615L86.539 3.44319ZM82.5903 10.3846L83.1992 6.66663L84.4724 6.84978L85.2843 10.5311L82.5903 10.3846Z" fill="#45AF49"/>
<path d="M78.0697 10.806L77.756 9.45073L76.3721 3.40678L72.8109 2.98553L71.0027 6.88663L69.4527 2.56428L66.1867 2.25293L61.7029 14.176L61.666 14.2493L61.8505 14.3042L66.3712 15.9709L68.4932 8.69982L70.5783 12.6375L73.5121 8.80971L74.1026 16.3189L76.0954 15.9342L76.7965 15.806L77.4977 15.6778L79.1215 15.3665L78.3834 12.1797L78.0697 10.806Z" fill="#E42926"/>
</svg>
