<svg width="35" height="35" viewBox="0 0 35 35" fill="none" xmlns="http://www.w3.org/2000/svg">
<path d="M17.5 0C7.83784 0 0 7.83784 0 17.5C0 27.1622 7.83784 35 17.5 35C27.1622 35 35 27.1622 35 17.5C35 7.83784 27.1622 0 17.5 0ZM1.29054 17.5C1.29054 15.6216 1.60811 13.7905 2.22973 12.0473L3.91216 13.2162V26.3514C3.39189 25.5473 2.93919 24.7027 2.56081 23.8108C1.71622 21.8108 1.29054 19.6892 1.29054 17.5ZM28.9662 28.9662C27.4797 30.4527 25.7432 31.6216 23.8108 32.4392C21.8108 33.2838 19.6892 33.7095 17.5 33.7095C15.3108 33.7095 13.1892 33.2838 11.1892 32.4392C9.25676 31.6216 7.52703 30.4527 6.03378 28.9662C5.56081 28.4932 5.12838 28 4.72297 27.4865H13.6824L17.2095 24.9324V11.027L13.6824 8.39865H4.08108C4.65541 7.55405 5.30405 6.76351 6.03378 6.03378C7.52027 4.5473 9.25676 3.37838 11.1892 2.56081C13.1892 1.71622 15.3108 1.29054 17.5 1.29054C19.6892 1.29054 21.8108 1.71622 23.8108 2.56081C25.7432 3.37838 27.473 4.5473 28.9662 6.03378C29.6959 6.76351 30.3514 7.55405 30.9189 8.39865H28.3581L27.7838 9.66892L26.0743 8.39865H22.0946L18.5946 11.027V24.9324L22.0811 27.4865H30.2838C29.8716 28 29.4324 28.4932 28.9662 28.9662ZM7.48649 12.7635H10.6892C11.5878 12.7635 12.3108 13.4932 12.3108 14.3851V21.5676C12.3108 22.4662 11.5811 23.1892 10.6892 23.1892H8.76351V13.6959L7.48649 12.7635ZM31.5135 25.6554V20.7027H26.9797V23.1959H25.0203C24.1622 23.1959 23.4662 22.5 23.4662 21.6419V13.6959L22.1824 12.7635H26.973V15.4865H31.1284L31.9527 10.1622C32.1216 10.4932 32.2838 10.8378 32.4257 11.1824C33.2703 13.1824 33.6959 15.3041 33.6959 17.4932C33.6959 19.6824 33.2703 21.8041 32.4257 23.8041C32.1689 24.4459 31.8581 25.0608 31.5135 25.6554Z" fill="#0179F0"/>
</svg>
